<?xml version="1.0" standalone="no"?>
<!DOCTYPE svg PUBLIC "-//W3C//DTD SVG 20010904//EN"
 "http://www.w3.org/TR/2001/REC-SVG-20010904/DTD/svg10.dtd">
<svg version="1.0" xmlns="http://www.w3.org/2000/svg"
 width="700.000000pt" height="700.000000pt" viewBox="0 0 700.000000 700.000000"
 preserveAspectRatio="xMidYMid meet">
<metadata>
Created by potrace 1.11, written by Peter Selinger 2001-2013
</metadata>
<g transform="translate(0.000000,700.000000) scale(0.100000,-0.100000)"
fill="#000000" stroke="none">
<path d="M3425 6380 c-3 -6 -15 -10 -26 -10 -15 0 -19 -7 -18 -37 0 -33 1 -35
9 -15 8 19 17 22 60 22 42 0 49 2 38 13 -26 24 -57 37 -63 27z"/>
<path d="M3793 6343 c-7 -2 -13 -9 -13 -14 0 -14 26 -10 40 6 10 12 10 15 -1
14 -8 0 -20 -3 -26 -6z"/>
<path d="M3640 6336 c0 -4 11 -18 25 -31 24 -25 85 -35 85 -15 0 6 -4 10 -10
10 -5 0 -10 7 -10 15 0 8 -6 15 -14 15 -7 0 -28 3 -45 6 -17 4 -31 3 -31 0z"/>
<path d="M3513 6313 c9 -9 20 -13 24 -9 4 4 1 11 -7 16 -25 16 -35 11 -17 -7z"/>
<path d="M2865 6310 c-8 -13 20 -24 42 -16 15 6 15 8 3 16 -20 13 -37 12 -45
0z"/>
<path d="M3204 6305 c-7 -15 -19 -20 -48 -20 -39 0 -40 -1 -40 -35 -1 -32 -4
-36 -41 -45 -22 -5 -49 -17 -59 -27 -11 -10 -28 -18 -38 -18 -10 0 -18 -4 -18
-10 0 -15 -77 -12 -83 3 -3 6 -6 2 -6 -11 -1 -24 10 -39 46 -59 17 -10 23 -10
26 0 4 9 6 9 6 0 1 -8 15 -14 34 -14 21 -1 25 -3 12 -6 -11 -3 -25 -9 -31 -14
-7 -6 -22 -5 -38 2 -23 11 -28 9 -60 -25 -26 -29 -40 -37 -62 -34 -33 4 -46
28 -15 28 28 0 26 11 -7 43 -20 19 -39 27 -65 27 -33 0 -37 3 -37 24 0 14 -4
28 -10 31 -6 4 -10 -5 -10 -20 0 -20 -4 -26 -15 -22 -8 4 -17 2 -20 -3 -4 -6
-24 -10 -46 -10 -21 0 -39 -4 -39 -10 0 -5 9 -10 21 -10 11 0 26 -6 33 -13 18
-17 -7 -41 -35 -34 -13 3 -29 -3 -44 -19 -13 -13 -31 -24 -40 -24 -15 0 -15
-2 -1 -15 19 -19 26 -19 26 1 0 11 5 14 16 10 9 -3 20 -6 25 -6 5 0 9 -4 9
-10 0 -5 -7 -10 -15 -10 -14 0 -20 -29 -16 -80 0 -8 -11 -23 -25 -33 -19 -15
-28 -16 -39 -7 -8 6 -18 9 -22 7 -5 -3 -9 13 -9 35 -1 22 -7 45 -13 51 -6 6
-11 19 -11 29 0 10 -4 18 -10 18 -5 0 -10 -4 -10 -10 0 -5 -5 -10 -11 -10 -7
0 -9 10 -7 25 6 28 -6 32 -46 14 -20 -10 -23 -15 -16 -30 7 -11 7 -20 0 -24
-5 -3 -10 -21 -10 -38 0 -39 -7 -50 -45 -70 -27 -15 -28 -16 -7 -17 15 0 22
-6 22 -20 0 -11 -5 -20 -11 -20 -6 0 -3 -7 5 -16 20 -19 20 -17 -3 -42 -20
-24 -60 -30 -62 -9 -3 33 4 83 12 94 7 8 4 13 -10 18 -12 3 -21 11 -21 16 0 6
-4 7 -10 4 -6 -4 -10 5 -10 19 0 14 5 26 10 26 6 0 10 9 10 20 0 25 -12 25
-35 0 -16 -18 -17 -23 -5 -45 11 -20 11 -31 -1 -62 -8 -21 -17 -36 -20 -33 -3
3 -13 -1 -22 -8 -9 -8 -20 -11 -25 -9 -20 13 -57 -44 -39 -62 17 -17 33 -13
45 12 10 21 11 21 11 1 1 -11 -3 -24 -8 -30 -4 -5 -11 -21 -15 -36 -6 -26 -4
-28 24 -28 19 0 29 -4 25 -10 -4 -6 -12 -10 -18 -9 -7 1 -24 -3 -40 -9 -38
-16 -188 -33 -272 -30 -38 1 -99 -4 -135 -11 -117 -22 -140 -24 -140 -12 0 6
-7 11 -15 11 -8 0 -15 5 -15 10 0 6 -8 10 -17 10 -10 0 -27 7 -37 15 -11 8
-28 15 -38 15 -10 0 -18 5 -18 10 0 6 -8 10 -18 10 -10 0 -22 4 -28 8 -5 5
-40 22 -79 38 -38 15 -90 39 -114 51 -24 13 -50 23 -57 23 -8 0 -14 5 -14 10
0 6 -6 10 -13 10 -8 0 -46 16 -86 35 -39 19 -75 35 -79 35 -12 0 -117 54 -120
63 -2 4 -15 7 -28 7 -13 0 -24 5 -24 10 0 6 -6 10 -12 10 -7 0 -35 11 -63 24
-94 45 -166 76 -175 76 -6 0 -10 5 -10 10 0 6 -9 10 -19 10 -11 0 -41 11 -67
25 -26 14 -53 25 -60 25 -8 0 -14 5 -14 10 0 6 -6 10 -12 10 -7 0 -44 15 -83
33 -38 18 -96 45 -127 60 l-58 27 0 -3105 0 -3105 1110 0 c611 0 1110 4 1110
8 0 12 39 52 50 52 6 0 10 -13 10 -30 0 -33 13 -38 36 -16 16 17 19 36 4 36
-5 0 -10 5 -10 10 0 14 28 12 32 -2 7 -19 38 16 38 41 0 12 4 21 8 21 5 0 9
-21 10 -46 0 -57 20 -73 89 -74 46 0 52 3 56 23 l4 22 2 -22 c1 -23 3 -23 124
-23 67 0 129 4 136 9 9 6 22 6 32 0 21 -11 49 -2 49 16 0 7 -6 25 -14 40 -14
27 -12 55 5 55 11 0 59 48 58 58 -4 25 4 32 41 32 22 0 48 5 58 11 13 8 28 9
48 2 23 -8 38 -5 79 16 27 14 51 29 53 33 2 4 10 4 18 1 8 -3 21 3 29 13 12
15 16 16 24 5 10 -15 3 -51 -10 -51 -13 0 -11 -28 1 -32 6 -2 2 -13 -10 -25
-11 -12 -20 -28 -20 -35 0 -8 -9 -21 -20 -31 -19 -16 -21 -15 -39 4 -24 26
-62 22 -77 -9 -24 -49 -32 -45 -39 17 -6 55 -9 61 -30 61 -13 0 -26 -4 -29 -9
-3 -4 2 -40 12 -80 13 -54 21 -71 35 -71 9 0 17 4 17 8 0 5 14 6 31 4 23 -3
30 -1 25 7 -9 14 11 41 30 41 17 0 29 -39 16 -52 -6 -6 -8 -17 -5 -24 4 -11
30 -14 112 -14 l108 0 12 48 c7 26 15 64 18 85 3 20 9 37 14 37 5 0 9 7 9 15
0 9 6 12 15 9 8 -4 15 -17 15 -30 0 -13 4 -24 9 -24 7 0 18 -31 25 -75 1 -5 6
-22 10 -38 l8 -27 108 0 107 0 0 28 c1 29 18 100 27 109 11 11 34 -18 40 -50
20 -97 8 -87 106 -87 61 0 90 4 92 12 4 10 10 10 31 1 21 -10 358 -13 1492
-13 l1465 0 0 151 c0 126 -2 150 -14 146 -19 -8 -55 20 -40 30 13 9 54 87 54
103 0 13 -37 13 -45 0 -3 -5 -22 -10 -42 -10 -30 0 -34 -3 -27 -17 4 -10 8
-29 8 -43 0 -14 6 -31 13 -38 9 -9 10 -19 3 -31 -5 -10 -6 -28 -3 -41 4 -16 0
-28 -13 -38 -16 -13 -16 -14 -1 -9 24 9 22 -19 -2 -33 -21 -11 -28 -5 -27 20
2 21 -65 33 -80 14 -6 -8 -16 -14 -23 -14 -14 0 -15 62 0 77 6 6 9 21 7 34 -4
32 -43 39 -51 10 -6 -24 -35 -28 -43 -6 -8 19 14 46 35 44 31 -3 40 1 46 20 6
21 -22 64 -37 55 -11 -7 -10 11 4 41 9 21 9 27 -5 38 -10 6 -21 32 -25 57 -7
39 -11 45 -29 42 -12 -2 -32 2 -43 8 -18 10 -26 6 -60 -29 -42 -45 -70 -53
-70 -21 0 19 18 59 31 70 3 3 12 16 19 29 11 21 10 26 -5 37 -9 7 -14 18 -10
23 3 6 -7 25 -24 41 -23 23 -38 30 -70 30 -22 0 -43 -4 -46 -10 -9 -14 -44
-12 -60 3 -8 9 -10 19 -4 28 13 20 11 29 -6 29 -8 0 -15 7 -15 16 0 12 3 14
13 6 7 -6 24 -15 38 -21 24 -9 26 -7 21 15 -2 14 0 24 7 24 6 0 11 7 11 15 0
11 -12 15 -45 15 -41 0 -45 2 -45 24 0 14 -4 28 -10 31 -5 3 -10 15 -10 26 0
11 -4 18 -9 15 -10 -7 -37 22 -42 45 -3 13 -8 14 -33 4 l-29 -12 21 -19 c23
-19 29 -44 12 -44 -5 0 -10 4 -10 9 0 13 -31 19 -56 10 -11 -4 -26 -4 -32 0
-7 4 2 12 23 20 33 12 35 15 35 57 0 38 -3 44 -21 44 -11 0 -27 6 -35 14 -16
16 -19 51 -4 41 6 -3 10 -2 10 3 0 9 -28 24 -39 23 -3 -1 -5 -18 -5 -38 -1
-32 3 -39 22 -41 12 -2 22 -7 22 -12 0 -5 3 -15 6 -24 10 -27 -25 -18 -38 9
-7 16 -19 25 -35 25 -23 0 -32 -15 -13 -22 5 -1 6 -8 2 -15 -6 -10 -14 -9 -36
3 -37 19 -68 10 -65 -19 4 -36 -11 -67 -32 -67 -10 0 -19 -6 -19 -13 0 -7 -11
-23 -25 -35 l-25 -22 0 33 c0 17 7 41 15 51 8 11 15 28 15 37 0 10 11 26 25
37 29 23 32 32 10 32 -26 0 -17 35 20 77 19 23 35 46 35 52 0 6 12 11 26 11
24 0 25 2 13 17 -13 15 -11 16 14 9 16 -4 26 -3 23 2 -2 4 6 21 20 37 13 15
24 32 24 37 0 4 6 8 14 8 7 0 27 12 44 28 54 48 90 72 106 72 9 0 16 5 16 10
0 13 -37 13 -45 0 -3 -6 -15 -10 -26 -10 -10 0 -19 -4 -19 -10 0 -5 -6 -10
-13 -10 -7 0 -23 -10 -37 -23 -14 -12 -45 -32 -70 -44 -46 -22 -109 -77 -136
-118 -10 -15 -29 -26 -55 -30 -34 -6 -39 -10 -39 -34 0 -22 -7 -29 -35 -40
-19 -7 -35 -19 -35 -27 0 -8 -4 -14 -10 -14 -5 0 -13 -15 -18 -32 -7 -29 -13
-33 -44 -36 -28 -2 -39 1 -47 17 -13 23 -5 51 15 51 8 0 14 5 14 11 0 5 5 7
10 4 6 -4 10 6 10 23 0 20 7 32 25 42 14 7 25 18 25 25 0 18 -22 35 -46 35
-17 0 -23 7 -26 27 -3 26 -4 26 -20 9 -16 -15 -20 -16 -33 -2 -8 8 -15 25 -15
38 0 30 -17 48 -46 48 -23 0 -43 32 -25 38 17 6 13 22 -9 40 -17 15 -18 20 -6
53 10 30 10 41 0 60 -7 13 -9 28 -5 34 5 5 16 35 25 65 26 82 58 150 71 150 7
0 10 10 8 24 -6 30 2 35 85 52 118 25 220 16 319 -27 24 -11 48 -19 55 -19 7
0 22 -7 32 -15 11 -8 28 -15 38 -15 10 0 18 -4 18 -8 0 -5 24 -14 53 -21 28
-7 71 -21 95 -32 24 -10 42 -13 42 -7 0 15 -33 68 -42 68 -4 0 -8 6 -8 14 0
12 -28 40 -103 104 -15 12 -30 22 -34 22 -4 0 -33 12 -63 27 -30 14 -63 30
-72 35 -10 4 -31 8 -48 8 -23 0 -30 4 -30 20 0 18 60 91 118 144 71 65 232
229 232 237 0 5 16 26 36 46 44 47 124 158 124 172 0 6 3 11 8 11 4 0 18 17
32 38 27 40 147 162 160 162 4 0 19 18 34 40 18 28 26 53 26 83 0 42 -21 100
-41 112 -5 4 -9 14 -9 24 0 10 -11 28 -25 41 -21 19 -25 21 -25 7 0 -9 5 -17
11 -17 5 0 7 -4 4 -10 -3 -5 0 -10 7 -10 8 0 7 -4 -4 -10 -10 -6 -16 -22 -16
-41 1 -20 -6 -35 -20 -45 -19 -13 -22 -25 -22 -85 0 -47 -5 -75 -14 -84 -15
-15 -18 -3 -32 118 -3 26 -10 47 -15 47 -5 0 -9 8 -9 19 0 14 -6 17 -25 13
-15 -2 -25 0 -25 7 0 6 -7 11 -15 11 -8 0 -15 5 -15 10 0 6 -7 10 -15 10 -8 0
-15 5 -15 10 0 6 9 10 20 10 11 0 20 4 20 9 0 25 33 17 65 -16 19 -20 37 -34
40 -31 10 10 -67 79 -82 74 -11 -4 -13 -2 -9 9 4 10 -1 15 -14 15 -11 0 -20 5
-20 10 0 6 -32 31 -71 56 -54 35 -69 50 -64 62 4 10 11 31 15 47 4 17 9 35 11
40 2 6 -6 20 -19 33 -19 19 -21 26 -11 38 8 10 21 13 36 9 21 -5 23 -3 14 14
-6 11 -11 46 -11 79 0 59 -28 149 -57 184 -35 41 -51 169 -23 188 4 3 10 25
14 50 3 25 3 38 -2 29 -13 -30 -79 -99 -94 -99 -26 0 -68 57 -68 92 0 24 -3
29 -9 18 -8 -11 -19 -6 -59 30 -28 25 -50 50 -51 57 -1 6 -4 13 -8 15 -11 4
-43 64 -43 78 0 7 -9 20 -19 29 -10 9 -29 36 -41 59 -12 23 -27 39 -33 35 -5
-3 -7 -1 -4 4 4 6 -9 28 -28 49 l-35 38 0 -32 c0 -18 4 -32 9 -32 12 0 20 -46
11 -61 -4 -6 -13 -8 -20 -4 -9 6 -10 0 -5 -23 7 -34 -8 -50 -30 -32 -13 10
-15 8 -15 -14 0 -17 -5 -26 -15 -26 -19 0 -63 27 -86 52 -9 10 -19 18 -23 18
-4 0 -24 17 -45 38 -70 68 -93 84 -112 79 -15 -4 -19 0 -19 24 0 18 -5 29 -14
29 -21 0 -96 78 -96 100 0 11 -7 23 -15 26 -8 4 -15 12 -15 20 0 8 -7 14 -15
14 -9 0 -18 8 -22 18 -12 32 -75 112 -89 112 -8 0 -14 -9 -14 -21 0 -15 5 -19
15 -15 10 3 20 -5 30 -24 9 -17 22 -30 30 -30 18 0 20 -17 3 -22 -9 -3 -8 -9
4 -21 9 -9 21 -17 26 -17 5 0 7 -10 5 -23 -3 -14 2 -29 11 -36 9 -8 16 -20 16
-27 0 -8 5 -14 10 -14 6 0 10 -9 10 -19 0 -25 18 -37 33 -22 12 12 33 -8 62
-63 11 -20 23 -36 27 -36 4 0 5 -7 1 -16 -4 -12 0 -14 21 -8 22 5 26 3 26 -15
0 -14 -5 -19 -15 -15 -24 9 -18 1 35 -56 49 -53 50 -55 28 -63 -14 -5 -24 -4
-26 2 -2 6 -15 11 -28 11 -13 0 -24 5 -24 10 0 6 -4 10 -10 10 -39 0 34 -45
85 -53 17 -2 38 -8 48 -12 13 -5 17 -2 17 13 0 11 -6 23 -12 25 -7 3 -1 6 15
6 22 1 27 -3 27 -24 0 -16 -6 -25 -15 -25 -8 0 -15 -4 -15 -9 0 -5 -8 -11 -17
-15 -27 -8 -56 -29 -73 -50 -8 -10 -32 -36 -53 -58 -35 -35 -42 -38 -75 -32
-20 4 -40 11 -43 17 -4 5 -25 7 -48 4 -49 -6 -55 9 -7 18 31 6 33 9 33 46 0
21 -4 39 -8 39 -5 0 -9 -13 -9 -29 0 -39 -28 -50 -52 -19 -12 15 -17 37 -16
63 3 33 7 41 26 43 19 3 21 6 11 18 -6 8 -17 14 -24 14 -8 0 -15 6 -18 13 -2
6 -8 9 -12 5 -4 -4 -2 -14 5 -23 10 -12 10 -18 0 -30 -20 -24 -33 -6 -26 36 7
43 3 47 -21 23 -12 -12 -18 -13 -27 -3 -8 8 -8 13 2 16 18 7 14 36 -8 56 -11
9 -20 23 -20 31 0 8 -6 19 -12 23 -14 8 -36 60 -45 103 -3 14 -9 30 -14 36 -5
6 -12 37 -15 69 -5 43 -9 54 -15 40 -7 -19 -8 -19 -15 3 -3 12 -10 22 -14 22
-18 0 -27 111 -20 243 1 20 21 3 34 -28 15 -36 29 -44 42 -24 4 7 -1 16 -10
21 -9 5 -14 13 -11 18 3 5 1 28 -5 51 -6 23 -8 48 -4 58 4 9 6 44 5 79 -2 49
0 62 12 62 11 0 14 11 12 43 -1 23 -6 50 -10 60 -4 9 -5 24 -1 32 8 22 -12 18
-24 -5 -6 -11 -17 -20 -25 -20 -20 0 -19 -36 0 -44 17 -6 21 -36 4 -36 -6 0
-8 -8 -4 -19 3 -10 3 -26 -1 -35 -6 -15 -7 -15 -20 1 -7 10 -14 26 -14 36 0 9
-4 17 -10 17 -5 0 -10 9 -10 19 0 11 -4 23 -10 26 -5 3 -10 19 -10 36 0 17 -7
33 -18 40 -13 8 -16 21 -14 50 3 26 0 39 -8 39 -7 0 -10 -6 -7 -13 3 -8 2 -20
-3 -26 -11 -19 -50 -4 -50 19 0 10 -4 22 -10 25 -5 3 -10 26 -10 50 0 24 5 47
10 50 6 3 10 1 10 -4 0 -6 5 -11 10 -11 6 0 10 7 10 15 0 8 -4 15 -10 15 -5 0
-10 12 -10 26 0 19 -4 25 -15 20 -8 -3 -21 2 -27 10 -7 9 -21 24 -30 35 -10
10 -18 28 -18 39 0 11 -7 23 -15 26 -9 4 -13 15 -11 28 2 11 1 15 -1 9 -7 -21
-20 -15 -27 12 -4 14 -12 25 -19 25 -16 0 -47 72 -47 110 0 17 -4 30 -10 30
-5 0 -10 -4 -10 -10 0 -14 -28 -12 -33 3 -2 6 -8 8 -13 4 -5 -4 -3 -11 3 -15
6 -4 14 -34 17 -67 5 -55 5 -57 -6 -25 -10 30 -12 32 -16 13 -7 -42 -32 -19
-32 29 0 11 -8 22 -20 25 -20 5 -29 43 -10 43 6 0 10 9 10 19 0 11 -4 23 -10
26 -19 12 -10 45 15 55 14 5 25 14 25 20 0 22 -44 53 -78 55 -19 1 -38 8 -43
16 -18 31 -25 37 -46 43 -21 7 -23 4 -24 -26 -1 -18 -3 -26 -6 -17 -6 23 -55
48 -60 32 -8 -22 -29 -14 -42 13 -10 24 -10 26 6 19 29 -13 68 -11 68 2 0 12
-31 33 -93 65 -28 14 -38 4 -25 -25 6 -12 11 -35 12 -51 1 -17 5 -32 10 -35 5
-3 12 -25 16 -48 4 -24 10 -43 13 -43 17 -1 33 -19 41 -48 8 -26 7 -32 -5 -32
-8 0 -17 8 -20 18 -12 38 -39 92 -46 92 -5 0 -8 12 -8 26 0 14 -7 32 -15 40
-8 8 -19 33 -25 55 -8 27 -19 44 -37 52 -21 9 -27 9 -31 -1 -5 -16 -37 -15
-51 2 -6 7 -9 20 -6 28 5 13 1 14 -28 5 -31 -10 -33 -13 -23 -31 14 -25 33
-46 41 -46 11 0 35 -28 35 -40 0 -7 -8 -9 -22 -4 -20 6 -21 5 -9 -10 8 -10 9
-16 2 -16 -6 0 -13 -11 -17 -25 -7 -29 -16 -31 -34 -10 -9 10 -9 15 -1 15 6 0
11 19 11 47 l0 47 -20 -22 c-12 -12 -27 -22 -35 -22 -8 0 -15 -6 -15 -12 -1
-9 -4 -8 -13 2 -7 8 -22 14 -34 12 -29 -4 -29 5 -2 29 16 14 18 22 10 36 -9
15 -10 15 -11 2 0 -9 -11 -21 -25 -27 -14 -6 -25 -20 -25 -30 0 -19 27 -63 46
-75 7 -4 11 -14 8 -22 -4 -8 -2 -15 4 -15 5 0 12 -10 16 -23 3 -13 14 -34 26
-48 11 -13 24 -29 29 -35 5 -6 12 -20 15 -32 4 -12 12 -22 17 -22 5 0 9 -5 9
-11 0 -6 -6 -9 -14 -6 -8 3 -17 1 -19 -6 -4 -11 11 -56 23 -67 6 -6 29 -45 47
-82 13 -26 33 -46 33 -33 0 3 -5 14 -12 24 -6 11 -8 26 -3 37 6 15 9 11 15
-21 4 -22 5 -45 3 -52 -3 -7 7 -24 21 -38 29 -29 35 -75 11 -75 -8 0 -15 8
-15 18 0 10 -9 28 -20 40 -11 12 -20 25 -20 30 0 5 -9 17 -21 28 -20 18 -49
74 -64 122 -6 22 -7 22 -21 5 -12 -16 -13 -14 -14 21 0 58 -62 184 -94 192
-17 4 -32 21 -48 54 -17 35 -32 52 -55 61 -18 7 -33 19 -33 26 0 7 -5 13 -11
13 -6 0 -19 10 -29 23 -10 12 -21 19 -24 16 -10 -10 25 -69 40 -69 10 0 13 -6
10 -18 -4 -12 1 -26 14 -37 11 -10 20 -29 20 -42 0 -29 30 -86 64 -120 14 -14
26 -34 26 -43 0 -10 7 -23 15 -30 8 -7 15 -19 15 -26 0 -8 5 -14 10 -14 6 0
10 -10 10 -21 0 -18 -2 -19 -15 -9 -8 7 -15 21 -15 31 0 11 -12 32 -27 48 -16
16 -37 46 -47 68 -11 21 -32 52 -47 68 -25 29 -40 68 -40 108 0 13 -5 17 -15
13 -9 -3 -12 -1 -9 4 8 13 -17 38 -33 32 -6 -2 -12 1 -12 7 0 6 -9 11 -20 11
-23 0 -26 13 -6 30 8 6 13 17 10 24 -3 8 5 15 20 18 18 4 26 1 26 -8 0 -16 28
-18 49 -5 16 10 6 31 -14 31 -7 0 -15 5 -17 12 -3 9 -14 7 -40 -5 -23 -11 -47
-15 -67 -11 -20 4 -31 3 -31 -5 0 -14 -37 -15 -45 -1 -9 15 -51 12 -65 -5 -11
-13 -8 -15 14 -15 14 0 26 -4 26 -10 0 -5 -11 -10 -25 -10 -19 0 -25 -5 -23
-17 2 -13 -4 -18 -22 -18 -20 0 -24 4 -22 21 2 16 -4 23 -23 28 -14 4 -25 12
-25 18 0 6 -7 19 -16 29 -20 22 -10 39 22 39 13 0 24 5 24 10 0 12 37 9 58 -3
20 -13 32 2 32 44 0 27 -4 39 -14 39 -8 0 -16 6 -19 13 -2 7 -8 8 -13 3 -5 -5
-4 -11 4 -13 19 -7 14 -23 -10 -32 -32 -12 -61 2 -69 30 -6 23 -7 23 -15 4z
m-194 -178 c0 -14 -20 -37 -32 -37 -12 0 -10 24 4 38 16 16 28 15 28 -1z m180
-22 c11 -13 8 -15 -15 -15 -22 0 -25 -3 -16 -13 8 -11 5 -16 -14 -25 -22 -10
-25 -9 -31 13 -3 14 -4 32 0 40 7 20 60 20 76 0z m256 -8 c4 -4 -9 -7 -29 -7
-20 0 -37 4 -37 9 0 11 56 9 66 -2z m78 -73 c4 -9 4 -19 1 -22 -3 -3 -5 0 -5
7 0 8 -7 10 -20 6 -14 -5 -20 -2 -20 9 0 21 36 21 44 0z m-781 -1 c-7 -2 -19
-2 -25 0 -7 3 -2 5 12 5 14 0 19 -2 13 -5z m1291 -3 c16 -6 26 -17 26 -30 0
-11 5 -20 10 -20 6 0 10 -9 10 -19 0 -10 7 -21 15 -25 8 -3 15 -15 15 -26 0
-13 7 -20 20 -20 13 0 20 -7 20 -20 0 -11 7 -23 15 -26 8 -4 15 -10 15 -15 0
-5 -7 -9 -15 -9 -8 0 -15 5 -15 11 0 6 -6 9 -12 6 -14 -4 -13 -55 2 -97 4 -14
11 -42 14 -63 4 -32 3 -35 -10 -23 -8 8 -14 22 -14 30 0 9 -4 16 -10 16 -5 0
-10 7 -10 16 0 10 -6 14 -14 11 -10 -4 -13 6 -12 45 1 28 0 46 -2 40 -6 -18
-22 -14 -22 4 0 26 -28 48 -45 34 -10 -9 -19 -8 -37 2 l-23 13 28 3 c19 2 27
9 27 23 0 10 5 19 11 19 15 0 39 -26 39 -43 0 -8 7 -20 15 -27 13 -11 15 -8
15 18 0 17 -7 37 -15 46 -8 8 -15 27 -15 42 0 18 -12 38 -35 60 -36 35 -34 41
9 24z m-1399 -19 c-3 -6 -11 -11 -16 -11 -5 0 -4 6 3 14 14 16 24 13 13 -3z
m83 -9 c37 -33 40 -42 12 -42 -11 0 -20 4 -20 8 0 5 -10 8 -22 8 -18 -1 -24 5
-26 27 -4 36 15 35 56 -1z m412 19 c0 -5 10 -12 23 -14 21 -4 21 -4 1 -6 -12
0 -27 6 -34 14 -9 10 -9 15 -1 15 6 0 11 -4 11 -9z m67 -37 c-3 -3 -12 -4 -19
-1 -8 3 -5 6 6 6 11 1 17 -2 13 -5z m-17 -34 c13 -24 -2 -26 -47 -9 -22 8 -24
12 -13 19 24 16 49 11 60 -10z m1180 -6 c0 -8 -4 -14 -9 -14 -12 0 -32 26 -25
33 10 9 34 -4 34 -19z m-1320 -1 c22 -6 43 -55 28 -64 -17 -11 -88 31 -88 51
0 23 11 32 29 24 9 -3 23 -8 31 -11z m887 -12 c-6 -17 -14 -28 -18 -25 -8 5
12 54 23 54 3 0 1 -13 -5 -29z m503 19 c0 -5 -9 -10 -19 -10 -11 0 -23 5 -26
10 -4 6 5 10 19 10 14 0 26 -4 26 -10z m-420 -20 c0 -5 -4 -10 -10 -10 -5 0
-10 5 -10 10 0 6 5 10 10 10 6 0 10 -4 10 -10z m260 -10 c0 -13 -5 -18 -15
-14 -16 7 -19 17 -8 27 12 13 23 7 23 -13z m-1953 -42 c-3 -8 -6 -5 -6 6 -1
11 2 17 5 13 3 -3 4 -12 1 -19z m230 16 c-3 -3 -12 -4 -19 -1 -8 3 -5 6 6 6
11 1 17 -2 13 -5z m1373 -19 c0 -8 -4 -15 -10 -15 -5 0 -10 7 -10 15 0 8 5 15
10 15 6 0 10 -7 10 -15z m430 11 c0 -3 -4 -8 -10 -11 -5 -3 -10 -1 -10 4 0 6
5 11 10 11 6 0 10 -2 10 -4z m-1572 -25 c28 -23 28 -41 1 -41 -36 0 -65 42
-36 53 6 3 12 6 13 6 1 1 11 -7 22 -18z m-328 -65 c0 -13 -6 -27 -12 -29 -10
-4 -9 -8 2 -16 13 -10 13 -12 0 -21 -12 -7 -16 -4 -18 16 -5 34 6 74 18 74 6
0 10 -11 10 -24z m679 -6 c10 -31 6 -60 -9 -60 -20 0 -40 13 -40 26 0 8 -4 14
-10 14 -5 0 -10 -8 -10 -17 0 -12 -3 -14 -11 -6 -13 13 -4 33 17 33 8 0 14 9
14 20 0 33 36 25 49 -10z m-422 -32 c-3 -8 -6 -5 -6 6 -1 11 2 17 5 13 3 -3 4
-12 1 -19z m1518 -8 c3 -11 11 -20 16 -20 5 0 9 -6 9 -14 0 -8 5 -16 11 -18 6
-2 9 -15 7 -28 -3 -22 -7 -18 -33 30 -39 72 -38 70 -27 70 6 0 14 -9 17 -20z
m-1195 -60 c0 -5 -4 -10 -10 -10 -5 0 -10 5 -10 10 0 6 5 10 10 10 6 0 10 -4
10 -10z m1557 -45 c9 -28 8 -37 -6 -49 -27 -25 -31 -20 -31 39 0 63 20 68 37
10z m-1550 -27 c-3 -8 -6 -5 -6 6 -1 11 2 17 5 13 3 -3 4 -12 1 -19z m863 -8
c0 -10 6 -21 13 -23 9 -4 9 -8 1 -14 -7 -4 -14 -19 -17 -33 -4 -23 -4 -22 -6
5 0 17 -5 44 -10 62 -7 26 -7 31 5 26 8 -3 14 -13 14 -23z m302 -21 c13 -3 15
-8 8 -19 -9 -13 -12 -12 -25 4 -8 11 -15 25 -15 30 0 7 3 7 8 0 4 -7 15 -13
24 -15z m88 6 c0 -8 -4 -15 -10 -15 -5 0 -10 7 -10 15 0 8 5 15 10 15 6 0 10
-7 10 -15z m-40 -47 c0 -16 -3 -19 -11 -11 -6 6 -8 16 -5 22 11 17 16 13 16
-11z m410 1 c0 -5 -4 -9 -10 -9 -5 0 -10 7 -10 16 0 8 5 12 10 9 6 -3 10 -10
10 -16z m-783 -51 c-3 -8 -6 -5 -6 6 -1 11 2 17 5 13 3 -3 4 -12 1 -19z m34
-48 c5 0 9 -7 9 -16 0 -14 -3 -14 -15 -4 -8 7 -14 24 -14 39 2 23 2 24 6 4 2
-13 9 -23 14 -23z m733 16 c-6 -15 -24 -23 -24 -11 0 8 24 34 28 30 1 -1 0
-10 -4 -19z m-2313 -49 c-18 -18 -13 -23 19 -21 20 1 30 -3 30 -12 0 -8 -4
-14 -10 -14 -5 0 -10 -9 -10 -20 0 -11 -5 -20 -11 -20 -5 0 -8 4 -5 9 10 15
-43 19 -70 5 -35 -18 -34 -19 -34 21 0 28 4 35 20 35 10 0 31 12 46 27 19 19
29 23 32 14 2 -7 -1 -18 -7 -24z m409 -2 c11 -13 8 -15 -14 -15 -15 0 -34 7
-42 15 -14 13 -12 15 14 15 16 0 35 -7 42 -15z m1120 0 c0 -8 -2 -15 -4 -15
-2 0 -6 7 -10 15 -3 8 -1 15 4 15 6 0 10 -7 10 -15z m-1230 -36 c0 -19 -4 -20
-33 -15 -26 5 -36 2 -47 -14 -15 -21 -50 -28 -50 -10 0 12 -79 10 -86 -2 -9
-14 -34 -9 -34 7 0 8 7 15 15 15 8 0 15 4 15 9 0 6 43 10 97 10 61 0 99 3 101
10 6 19 22 12 22 -10z m1443 8 c3 -8 1 -20 -4 -28 -6 -10 -9 -7 -9 14 0 29 5
35 13 14z m-69 -136 c27 -85 12 -75 -26 17 -7 17 -16 32 -20 32 -4 0 -5 7 -2
15 9 23 27 -2 48 -64z m72 47 c-9 -12 -16 -17 -16 -10 0 14 23 42 29 37 1 -2
-4 -14 -13 -27z m31 -30 c-3 -8 -6 -5 -6 6 -1 11 2 17 5 13 3 -3 4 -12 1 -19z
m24 -39 c-5 -13 -10 -19 -10 -12 -1 15 10 45 15 40 3 -2 0 -15 -5 -28z m719
-41 c0 -13 -4 -29 -9 -36 -6 -10 -10 -7 -15 13 -4 14 -4 30 -1 35 11 18 25 10
25 -12z m-813 -20 c-3 -8 -6 -5 -6 6 -1 11 2 17 5 13 3 -3 4 -12 1 -19z m753
-19 c0 -5 -7 -9 -15 -9 -9 0 -12 6 -9 15 6 15 24 11 24 -6z m80 -91 c0 -5 -4
-8 -10 -8 -5 0 -10 10 -10 23 0 18 2 19 10 7 5 -8 10 -18 10 -22z m-113 -30
c-3 -8 -6 -5 -6 6 -1 11 2 17 5 13 3 -3 4 -12 1 -19z m73 1 c0 -11 -4 -17 -10
-14 -5 3 -10 13 -10 21 0 8 5 14 10 14 6 0 10 -9 10 -21z m0 -132 c0 -36 -15
-27 -25 16 -6 22 -4 26 9 21 10 -4 16 -18 16 -37z m-3210 -2 c-7 -8 -17 -15
-22 -15 -11 0 14 29 26 30 5 0 3 -7 -4 -15z m2277 -27 c-3 -8 -6 -5 -6 6 -1
11 2 17 5 13 3 -3 4 -12 1 -19z m1023 18 c0 -3 -4 -8 -10 -11 -5 -3 -10 -1
-10 4 0 6 5 11 10 11 6 0 10 -2 10 -4z m-2811 -285 c0 -15 -3 -20 -6 -11 -3 8
-12 19 -19 23 -21 12 -17 26 6 20 14 -4 20 -13 19 -32z m85 -127 c10 -25 7
-32 -20 -59 -44 -44 -63 -3 -21 47 26 32 33 34 41 12z m3607 -229 c7 -15 6
-30 -4 -53 -12 -29 -15 -31 -26 -18 -10 12 -11 23 -2 47 6 18 12 44 12 58 1
20 2 21 6 6 2 -11 9 -29 14 -40z m-3791 -18 c0 -14 -7 -40 -15 -58 -14 -34
-14 -34 -15 39 0 65 2 72 15 58 8 -8 15 -26 15 -39z m40 39 c0 -8 -4 -18 -10
-21 -5 -3 -10 -4 -10 -1 0 2 -3 11 -6 20 -4 11 -1 16 10 16 9 0 16 -6 16 -14z
m2207 -100 c8 -6 20 -17 28 -23 20 -19 39 -16 21 3 -20 19 -21 34 -2 34 7 0
16 -9 19 -20 3 -12 14 -20 26 -20 12 0 24 -7 27 -15 4 -8 12 -15 20 -15 14 0
18 -15 14 -60 -3 -37 -8 -37 -41 -2 -16 18 -31 32 -32 32 -1 0 -1 -26 1 -58
l4 -59 -68 4 c-38 3 -77 10 -89 16 -19 11 -19 12 7 15 15 2 30 11 33 21 8 28
-2 93 -17 103 -11 6 -11 10 1 17 9 6 10 11 2 15 -6 4 -11 14 -11 22 0 17 32
11 57 -10z m873 9 c0 -8 -4 -15 -10 -15 -5 0 -10 7 -10 15 0 8 5 15 10 15 6 0
10 -7 10 -15z m613 -55 c26 0 136 -66 137 -82 0 -4 21 -29 48 -57 70 -73 75
-81 75 -112 0 -28 -40 -99 -56 -99 -11 0 -197 191 -197 202 0 4 -6 8 -12 8 -7
0 -26 20 -43 45 -16 24 -33 45 -37 45 -5 0 -8 11 -8 23 0 26 38 51 55 36 5 -5
22 -9 38 -9z m-1073 -80 c0 -22 -4 -28 -15 -24 -8 4 -15 17 -15 30 0 15 6 24
15 24 10 0 15 -10 15 -30z m1043 -64 c39 -41 86 -92 102 -112 37 -47 96 -104
107 -104 4 0 8 -13 8 -30 0 -25 -4 -30 -24 -30 -13 0 -26 4 -28 8 -3 9 -113
62 -128 62 -6 0 -10 5 -10 10 0 6 -6 10 -12 10 -12 0 -118 50 -128 60 -3 3
-24 14 -47 24 -24 11 -43 21 -43 23 0 2 16 28 36 58 20 29 33 58 29 64 -3 7 0
8 9 5 11 -4 16 0 16 10 0 36 43 14 113 -58z m-209 39 c-4 -8 -10 -15 -15 -15
-5 0 -9 -7 -9 -15 0 -8 -4 -15 -10 -15 -5 0 -10 -6 -10 -14 0 -15 -37 -32 -47
-23 -6 7 76 97 88 97 5 0 6 -7 3 -15z m-254 -114 c0 -22 -7 -26 -26 -13 -17
11 -22 35 -10 48 14 15 36 -7 36 -35z m140 -27 c0 -12 -4 -12 -19 -2 -11 7
-18 15 -15 20 7 11 34 -3 34 -18z m-64 -28 c8 -8 14 -17 14 -21 0 -10 -27 -35
-38 -35 -6 0 -12 -6 -15 -12 -3 -9 -10 -7 -21 7 -20 26 -20 45 2 61 22 17 40
17 58 0z m215 -27 c35 -17 89 -43 119 -58 30 -14 57 -29 58 -33 2 -5 9 -8 14
-8 6 0 44 -17 85 -37 72 -36 74 -38 67 -67 -4 -17 -12 -39 -18 -51 -6 -11 -11
-21 -11 -22 -1 -4 -75 23 -81 30 -4 4 -18 7 -32 7 -14 0 -39 14 -59 33 -19 17
-64 60 -99 95 -36 34 -71 62 -79 62 -8 0 -15 5 -15 10 0 6 -6 10 -13 10 -16 0
-40 38 -32 50 10 16 28 12 96 -21z m-102 -56 c20 -15 54 -44 76 -64 22 -21 51
-47 65 -59 31 -26 13 -42 -34 -29 -38 10 -97 12 -153 3 -47 -7 -73 9 -73 45 0
12 -4 21 -10 21 -19 0 -11 48 10 55 11 3 20 11 20 16 0 5 6 9 14 9 7 0 19 7
26 15 16 20 17 20 59 -12z m57 -171 c5 -5 43 -16 84 -26 92 -22 130 -36 130
-47 0 -5 7 -9 16 -9 9 0 14 -6 11 -12 -2 -7 -15 -12 -28 -11 -13 1 -42 2 -64
4 -22 1 -47 6 -56 10 -8 4 -44 9 -80 10 -124 6 -190 89 -70 89 26 0 51 -4 57
-8z m-1618 -80 c2 -12 7 -22 12 -22 5 0 13 -12 18 -27 8 -21 11 -23 11 -8 1
15 4 16 13 7 10 -9 8 -16 -6 -30 -14 -12 -20 -14 -23 -4 -3 6 -11 12 -19 12
-8 0 -14 7 -14 15 0 8 -9 15 -20 15 -11 0 -20 -6 -20 -14 0 -8 -7 -16 -15 -20
-9 -3 -15 0 -15 8 0 8 7 16 15 20 8 3 15 15 15 26 0 11 5 20 10 20 6 0 10 7
10 16 0 23 24 11 28 -14z m882 -53 c0 7 23 -10 50 -38 48 -49 50 -54 55 -117
4 -69 0 -94 -17 -94 -17 0 -58 53 -65 83 -3 15 -10 30 -14 33 -12 7 -12 44 0
44 5 0 11 -4 13 -8 5 -13 68 -23 68 -11 0 13 -26 40 -37 38 -35 -6 -53 3 -53
26 0 14 -4 25 -10 25 -5 0 -10 -6 -10 -12 0 -10 -3 -9 -9 1 -5 7 -6 22 -4 32
5 19 6 19 19 2 9 -13 13 -14 14 -4z m786 5 c30 -4 54 -11 54 -15 0 -5 18 -9
39 -9 22 0 43 -4 46 -10 3 -5 19 -10 35 -10 15 0 30 -6 33 -12 3 -10 -22 -12
-112 -11 -64 2 -126 3 -138 3 -16 0 -23 6 -23 20 0 11 -4 20 -10 20 -5 0 -10
9 -10 21 0 15 4 19 16 15 9 -3 40 -9 70 -12z m-666 -60 c0 -12 -4 -14 -12 -7
-7 6 -20 13 -28 16 -9 3 -3 6 13 6 19 1 27 -4 27 -15z m896 -66 c9 -9 -15
-116 -31 -139 -9 -15 -15 -15 -50 -3 -22 7 -52 14 -67 14 -16 0 -28 4 -28 9 0
5 -7 11 -16 13 -9 2 -29 28 -45 58 l-28 55 32 5 c42 7 223 -3 233 -12z m-919
-200 c-3 -8 -6 -5 -6 6 -1 11 2 17 5 13 3 -3 4 -12 1 -19z m831 -60 l34 -13
-6 -52 c-8 -70 -15 -85 -39 -81 -23 3 -27 10 -55 96 l-21 62 26 0 c15 0 42 -6
61 -12z m577 -20 c18 -21 23 -34 15 -36 -6 -2 -17 1 -23 7 -6 6 -19 11 -29 11
-13 0 -18 8 -18 25 0 35 23 32 55 -7z m382 10 c-3 -8 -6 -5 -6 6 -1 11 2 17 5
13 3 -3 4 -12 1 -19z m-60 -70 c-3 -8 -6 -5 -6 6 -1 11 2 17 5 13 3 -3 4 -12
1 -19z m-3194 -25 c20 -16 36 -34 37 -40 0 -15 -16 -17 -25 -4 -3 6 -26 13
-50 17 -25 3 -45 10 -45 15 0 5 -9 9 -20 9 -11 0 -20 7 -20 15 0 28 81 19 123
-12z m2989 13 c16 -12 14 -14 -23 -26 -35 -12 -39 -16 -25 -26 26 -18 20 -37
-9 -30 -28 7 -37 -17 -10 -28 29 -11 38 -56 19 -98 -16 -35 -20 -38 -60 -38
-24 0 -45 4 -48 9 -4 5 -29 12 -57 16 -28 4 -53 13 -56 21 -4 11 22 77 56 144
11 21 89 21 101 0 8 -13 10 -13 11 0 1 8 1 20 0 27 -2 16 39 43 64 43 11 0 28
-7 37 -14z m-3746 -322 c9 -60 18 -146 21 -191 3 -46 9 -83 14 -83 14 0 10
-90 -4 -103 -7 -7 -22 -17 -34 -24 -17 -10 -22 -9 -27 3 -13 33 -2 523 11 510
2 -2 11 -52 19 -112z m1674 -49 c0 -8 -4 -16 -9 -19 -5 -3 -8 5 -8 19 0 14 3
22 8 19 5 -3 9 -11 9 -19z m-20 -62 c0 -30 -14 -52 -23 -36 -2 5 -2 28 1 52 5
49 22 38 22 -16z m46 10 c-10 -10 -19 5 -10 18 6 11 8 11 12 0 2 -7 1 -15 -2
-18z m-7 -54 c-10 -6 -11 -9 -1 -9 6 0 12 -9 12 -20 0 -11 -4 -20 -10 -20 -5
0 -10 9 -10 20 0 12 -7 20 -17 21 -14 0 -15 2 -3 6 8 3 19 13 24 22 7 12 10
13 14 2 2 -7 -2 -17 -9 -22z m-25 -61 c-2 -3 -15 -1 -28 5 -18 9 -22 15 -14
25 9 10 14 9 28 -5 10 -10 16 -21 14 -25z m-1610 -335 c-2 -15 -8 -68 -14
-118 -6 -49 -8 -103 -4 -118 3 -15 1 -34 -6 -42 -12 -14 -9 -103 4 -124 5 -7
3 -18 -3 -24 -14 -14 -14 -42 0 -66 8 -11 9 -29 4 -47 -7 -24 -9 -26 -12 -9
-2 11 -11 37 -18 57 -10 25 -12 54 -8 85 5 42 4 46 -8 36 -13 -11 -16 -6 -18
35 -1 25 -4 48 -7 51 -31 32 -14 -197 18 -233 4 -6 8 -18 8 -27 0 -9 7 -22 15
-29 24 -20 19 -83 -10 -114 -28 -30 -33 -77 -10 -96 8 -7 15 -26 15 -42 0 -41
-31 -34 -44 10 -6 21 -17 34 -32 38 -29 8 -30 28 -4 88 10 25 17 46 14 46 -2
0 0 8 5 18 6 11 6 24 -1 36 -8 13 -7 21 3 26 10 7 10 16 0 49 -18 60 -41 49
-41 -20 0 -16 -8 -38 -17 -49 -20 -23 -45 -104 -44 -143 0 -34 -12 -24 -53 42
-24 38 -27 49 -21 94 5 36 15 58 35 77 31 31 80 116 80 141 0 9 3 19 6 22 10
10 63 169 64 190 0 9 5 17 10 17 6 0 10 11 10 24 0 13 3 26 8 28 4 2 16 28 26
58 19 53 33 73 46 65 4 -2 5 -17 4 -32z m3090 -13 c-6 -6 -21 -6 -39 -1 -30 9
-30 9 10 10 25 1 36 -2 29 -9z m-4194 -455 c0 -3 -10 -22 -23 -43 -12 -20 -28
-48 -34 -62 -6 -14 -28 -61 -48 -105 -56 -123 -67 -145 -77 -145 -4 0 -8 -16
-8 -35 0 -19 -3 -35 -7 -35 -5 0 -16 -21 -26 -48 -10 -26 -23 -55 -28 -64 -5
-10 -9 -31 -9 -46 0 -21 -7 -32 -25 -40 -14 -6 -25 -16 -25 -22 0 -15 -39 -12
-56 4 -8 8 -14 24 -14 36 0 32 -54 24 -58 -9 -2 -13 1 -28 7 -34 15 -15 14
-27 -4 -27 -15 0 -19 -10 -15 -43 1 -10 -4 -25 -11 -33 -7 -8 -12 -29 -11 -47
0 -26 -1 -29 -11 -17 -7 8 -22 14 -34 12 -19 -3 -23 -9 -22 -40 1 -22 -8 -56
-23 -84 -35 -64 -49 -148 -33 -195 5 -15 3 -23 -4 -23 -6 0 -11 8 -11 18 0 10
-4 22 -9 27 -5 6 -12 19 -15 30 -3 11 -4 1 -2 -23 3 -32 -2 -54 -20 -87 -14
-24 -24 -50 -23 -57 1 -7 1 -33 0 -58 -1 -35 -4 -42 -13 -32 -24 24 -4 392 21
392 4 0 13 28 20 63 7 34 19 79 27 100 8 20 14 46 14 55 0 28 118 272 132 272
4 0 8 5 8 10 0 6 11 22 25 36 14 14 25 32 25 40 0 20 37 73 67 97 13 10 29 24
36 30 6 7 31 21 54 32 24 11 43 23 43 28 0 4 5 7 12 7 6 0 30 19 52 43 77 79
156 141 156 122z m1280 -176 c0 -10 -6 -19 -14 -19 -16 0 -25 19 -19 37 7 18
33 4 33 -18z m-140 -136 c0 -43 -12 -57 -24 -27 -3 9 -6 36 -6 62 0 42 1 44
15 26 8 -10 15 -38 15 -61z m2798 -5 c-6 -18 -28 -21 -28 -4 0 9 7 16 16 16 9
0 14 -5 12 -12z m96 -124 c22 -8 20 -19 -4 -21 -11 -1 -20 4 -20 13 0 16 2 16
24 8z m-3334 -165 c0 -11 -4 -18 -10 -14 -5 3 -7 12 -3 20 7 21 13 19 13 -6z
m3340 7 c0 -8 -5 -18 -10 -21 -6 -4 -8 -11 -4 -16 3 -6 3 -17 -1 -27 -10 -26
-22 2 -17 43 4 34 32 52 32 21z m-3362 -93 c2 -38 -2 -55 -11 -59 -10 -4 -14
-29 -16 -92 0 -48 -6 -88 -11 -90 -6 -2 -10 -13 -10 -25 0 -17 -2 -19 -9 -7
-6 8 -8 26 -5 40 3 14 7 52 9 85 4 61 8 87 20 161 10 59 30 52 33 -13z m-1008
-3 c0 -5 -5 -10 -11 -10 -5 0 -7 5 -4 10 3 6 8 10 11 10 2 0 4 -4 4 -10z
m1964 -45 c-4 -8 -15 -15 -25 -15 -12 0 -16 5 -13 15 4 8 15 15 25 15 12 0 16
-5 13 -15z m-1951 -40 c4 -8 2 -17 -3 -20 -6 -4 -10 3 -10 14 0 25 6 27 13 6z
m1407 -10 c0 -8 -4 -15 -10 -15 -5 0 -10 7 -10 15 0 8 5 15 10 15 6 0 10 -7
10 -15z m-312 -32 c14 -32 16 -65 3 -79 -5 -5 -11 -22 -13 -38 -3 -29 -4 -29
-21 -12 -17 17 -17 20 -1 43 13 20 14 30 5 50 -15 32 -14 63 2 63 6 0 18 -12
25 -27z m4027 -107 c8 -7 12 -16 9 -19 -8 -7 -54 14 -54 25 0 13 30 9 45 -6z
m-110 -88 c-9 -5 -24 -7 -33 -3 -15 6 -15 8 3 15 28 10 53 0 30 -12z m-4095
-7 c0 -24 -18 -37 -31 -24 -13 13 -1 43 17 43 8 0 14 -9 14 -19z m19 -64 c-8
-18 -12 -43 -10 -57 3 -21 1 -22 -13 -11 -9 8 -16 28 -16 47 0 27 4 34 20 34
15 0 20 7 21 28 1 18 3 21 6 9 3 -10 -1 -33 -8 -50z m962 -1 c-7 -8 -21 -12
-31 -9 -31 8 -23 23 11 23 26 0 29 -3 20 -14z m3284 -26 c3 -5 -1 -10 -10 -10
-9 0 -13 5 -10 10 3 6 8 10 10 10 2 0 7 -4 10 -10z m-3838 -22 c-3 -8 -6 -5
-6 6 -1 11 2 17 5 13 3 -3 4 -12 1 -19z m-441 -65 c-3 -17 -26 -32 -26 -16 0
8 20 33 26 33 1 0 1 -8 0 -17z m-1236 -23 c0 -5 -5 -10 -11 -10 -5 0 -7 5 -4
10 3 6 8 10 11 10 2 0 4 -4 4 -10z m2150 -140 c0 -5 -2 -10 -4 -10 -3 0 -8 5
-11 10 -3 6 -1 10 4 10 6 0 11 -4 11 -10z m3644 -5 c-5 -13 -64 -7 -64 6 0 5
15 9 34 7 20 -1 32 -6 30 -13z m-4165 -97 c0 -31 -3 -37 -8 -24 -7 18 -3 66 5
66 2 0 4 -19 3 -42z m-1862 0 c-3 -8 -6 -5 -6 6 -1 11 2 17 5 13 3 -3 4 -12 1
-19z m6101 -14 c2 -10 10 -24 18 -30 13 -10 13 -14 0 -27 -20 -20 -53 -11 -73
19 -8 13 -25 24 -37 24 -17 0 -18 2 -6 10 8 5 23 7 32 4 9 -3 22 2 30 10 17
19 32 15 36 -10z m-3165 -28 c6 -15 -1 -26 -15 -26 -4 0 -8 9 -8 20 0 23 15
27 23 6z m-1073 -33 c0 -19 -3 -24 -10 -17 -6 6 -8 18 -4 27 9 24 14 21 14
-10z"/>
<path d="M2590 1874 c0 -21 4 -33 10 -29 6 3 10 19 10 36 0 16 -4 29 -10 29
-5 0 -10 -16 -10 -36z"/>
<path d="M1050 850 c0 -5 5 -10 10 -10 6 0 10 5 10 10 0 6 -4 10 -10 10 -5 0
-10 -4 -10 -10z"/>
<path d="M3426 6312 c-2 -4 -1 -14 5 -22 7 -12 9 -10 9 8 0 23 -5 28 -14 14z"/>
<path d="M3555 6290 c3 -5 8 -10 11 -10 2 0 4 5 4 10 0 6 -5 10 -11 10 -5 0
-7 -4 -4 -10z"/>
<path d="M3920 6291 c0 -5 6 -12 13 -15 10 -5 10 -7 0 -12 -18 -8 -16 -34 2
-34 8 0 12 -6 9 -13 -2 -7 7 -19 21 -27 14 -7 25 -19 25 -27 0 -7 5 -13 10
-13 6 0 10 7 10 15 0 10 10 15 28 15 l27 0 -25 14 c-18 9 -29 10 -39 2 -11 -9
-13 -7 -7 12 5 14 3 22 -4 22 -16 0 -36 22 -44 48 -7 22 -26 31 -26 13z"/>
<path d="M4235 6290 c3 -5 8 -10 11 -10 2 0 4 5 4 10 0 6 -5 10 -11 10 -5 0
-7 -4 -4 -10z"/>
<path d="M3590 6272 c0 -4 6 -14 12 -20 13 -13 3 -24 -26 -35 -21 -7 4 -37 31
-37 17 0 42 -12 63 -30 41 -35 49 -36 83 -10 29 23 43 25 50 8 4 -10 7 -10 18
0 11 10 10 12 -2 12 -19 0 -59 41 -59 59 0 10 -3 11 -14 2 -10 -9 -15 -8 -19
4 -4 8 -13 12 -21 9 -16 -6 -46 17 -46 35 0 6 -16 11 -35 11 -19 0 -35 -4 -35
-8z m115 -110 c-8 -8 -25 17 -25 38 0 9 6 6 16 -8 9 -13 13 -26 9 -30z"/>
<path d="M3810 6271 c0 -10 65 -61 78 -61 6 0 12 -7 16 -15 9 -24 28 -18 20 7
-9 28 -24 43 -52 52 -12 4 -22 12 -22 17 0 5 -9 9 -20 9 -11 0 -20 -4 -20 -9z"/>
<path d="M3030 6256 c0 -9 30 -14 35 -6 4 6 -3 10 -14 10 -12 0 -21 -2 -21 -4z"/>
<path d="M2800 6240 c0 -5 -11 -10 -24 -10 -29 0 -39 -22 -22 -45 11 -15 16
-16 37 -4 13 7 36 12 52 11 30 -3 37 19 13 44 -17 16 -56 19 -56 4z"/>
<path d="M3390 6241 c0 -6 5 -13 10 -16 6 -3 10 1 10 9 0 9 -4 16 -10 16 -5 0
-10 -4 -10 -9z"/>
<path d="M3465 6220 c3 -5 12 -10 20 -10 7 0 15 -6 18 -12 2 -7 8 -10 12 -6
12 11 -15 38 -37 38 -10 0 -16 -4 -13 -10z"/>
<path d="M4118 6183 c6 -2 18 -2 25 0 6 3 1 5 -13 5 -14 0 -19 -2 -12 -5z"/>
<path d="M4223 6176 c4 -10 1 -13 -9 -9 -21 8 -17 -4 11 -35 20 -21 25 -23 25
-9 0 10 8 17 20 17 23 0 26 -10 8 -29 -10 -11 -10 -14 0 -18 6 -3 12 -11 12
-20 0 -11 7 -13 33 -8 17 4 33 9 35 10 8 7 -107 115 -123 115 -11 0 -15 -5
-12 -14z"/>
<path d="M2660 6170 c0 -5 5 -10 11 -10 5 0 7 5 4 10 -3 6 -8 10 -11 10 -2 0
-4 -4 -4 -10z"/>
<path d="M3310 6170 c0 -5 5 -10 10 -10 6 0 10 5 10 10 0 6 -4 10 -10 10 -5 0
-10 -4 -10 -10z"/>
<path d="M2712 6146 c-19 -10 -21 -15 -10 -23 18 -14 54 -22 67 -14 15 10 1
51 -18 51 -9 -1 -26 -6 -39 -14z"/>
<path d="M3620 6146 c0 -7 6 -19 14 -25 19 -16 28 9 10 26 -16 17 -24 16 -24
-1z"/>
<path d="M3840 6132 c0 -6 -3 -17 -6 -26 -4 -12 0 -16 15 -16 24 0 28 22 6 40
-9 8 -15 8 -15 2z"/>
<path d="M3765 6110 c3 -5 8 -10 11 -10 2 0 4 5 4 10 0 6 -5 10 -11 10 -5 0
-7 -4 -4 -10z"/>
<path d="M2403 6076 c-26 -12 -31 -36 -8 -36 9 0 15 -9 15 -24 0 -27 29 -40
46 -21 19 20 34 53 34 74 0 17 -6 21 -32 20 -18 -1 -43 -6 -55 -13z"/>
<path d="M4366 6074 c-9 -25 -7 -34 8 -34 8 0 16 -6 19 -12 2 -7 8 -10 12 -5
5 4 3 13 -3 19 -7 7 -12 20 -12 30 0 22 -16 24 -24 2z"/>
<path d="M3698 6058 c-3 -7 0 -19 8 -25 19 -18 30 5 12 24 -12 12 -16 12 -20
1z"/>
<path d="M4420 6060 c-8 -5 -11 -12 -7 -16 4 -4 13 -2 19 4 15 15 7 24 -12 12z"/>
<path d="M3731 6004 c0 -11 3 -14 6 -6 3 7 2 16 -1 19 -3 4 -6 -2 -5 -13z"/>
<path d="M4501 5894 c0 -11 3 -14 6 -6 3 7 2 16 -1 19 -3 4 -6 -2 -5 -13z"/>
<path d="M4550 5845 c0 -8 7 -15 15 -15 8 0 15 7 15 15 0 8 -7 15 -15 15 -8 0
-15 -7 -15 -15z"/>
<path d="M4560 5755 c0 -8 7 -15 15 -15 9 0 12 6 9 15 -4 8 -10 15 -15 15 -5
0 -9 -7 -9 -15z"/>
<path d="M4640 5725 c7 -8 17 -15 22 -15 5 0 3 7 -6 15 -8 8 -18 15 -22 15 -3
0 -1 -7 6 -15z"/>
<path d="M4710 5736 c0 -2 7 -6 15 -10 8 -3 15 -1 15 4 0 6 -7 10 -15 10 -8 0
-15 -2 -15 -4z"/>
<path d="M4690 5680 c0 -5 7 -10 16 -10 8 0 12 5 9 10 -3 6 -10 10 -16 10 -5
0 -9 -4 -9 -10z"/>
<path d="M4690 5589 c0 -5 5 -7 10 -4 6 3 10 8 10 11 0 2 -4 4 -10 4 -5 0 -10
-5 -10 -11z"/>
<path d="M4742 5588 c2 -6 10 -14 16 -16 7 -2 10 2 6 12 -7 18 -28 22 -22 4z"/>
<path d="M4842 5584 c-11 -12 -9 -14 8 -14 11 0 20 -5 20 -12 0 -6 3 -9 6 -5
3 3 0 14 -8 25 -11 16 -15 17 -26 6z"/>
<path d="M4900 5492 c0 -6 3 -12 8 -12 4 0 14 -15 21 -32 8 -18 21 -39 28 -46
11 -11 13 -10 13 7 0 12 -4 21 -10 21 -5 0 -10 5 -10 10 0 6 -11 23 -25 38
-14 15 -25 21 -25 14z"/>
<path d="M4967 5353 c-12 -21 -17 -72 -8 -78 7 -4 11 7 11 29 0 31 3 36 23 36
18 0 19 2 7 10 -18 12 -27 12 -33 3z"/>
<path d="M4781 5334 c0 -11 3 -14 6 -6 3 7 2 16 -1 19 -3 4 -6 -2 -5 -13z"/>
<path d="M4871 5294 c0 -11 3 -14 6 -6 3 7 2 16 -1 19 -3 4 -6 -2 -5 -13z"/>
<path d="M5097 5264 c-3 -5 1 -15 9 -22 16 -14 18 -5 5 17 -5 7 -11 9 -14 5z"/>
<path d="M5130 5220 c0 -6 7 -18 15 -26 9 -10 15 -11 15 -4 0 6 -7 18 -15 26
-9 10 -15 11 -15 4z"/>
<path d="M5040 5145 c0 -9 9 -15 21 -15 18 0 19 2 5 15 -8 8 -17 15 -20 15 -3
0 -6 -7 -6 -15z"/>
<path d="M5011 5028 c-1 -34 2 -38 24 -39 14 -1 30 -2 37 -3 6 -1 13 4 15 10
2 7 -5 10 -20 7 -25 -5 -42 9 -50 42 -3 12 -5 4 -6 -17z"/>
<path d="M5250 4980 c0 -5 7 -10 15 -10 8 0 15 5 15 10 0 6 -7 10 -15 10 -8 0
-15 -4 -15 -10z"/>
<path d="M5320 4973 c0 -13 5 -23 10 -23 13 0 13 11 0 30 -8 12 -10 11 -10 -7z"/>
<path d="M5020 4960 c0 -5 5 -10 10 -10 6 0 10 5 10 10 0 6 -4 10 -10 10 -5 0
-10 -4 -10 -10z"/>
<path d="M5082 4950 c0 -14 2 -19 5 -12 2 6 2 18 0 25 -3 6 -5 1 -5 -13z"/>
<path d="M5375 4930 c-3 -5 -1 -10 4 -10 6 0 11 5 11 10 0 6 -2 10 -4 10 -3 0
-8 -4 -11 -10z"/>
<path d="M5021 4913 c0 -5 4 -17 9 -28 8 -18 9 -17 9 8 1 15 -3 27 -9 27 -5 0
-10 -3 -9 -7z"/>
<path d="M5040 4845 c0 -8 5 -15 10 -15 6 0 10 7 10 15 0 8 -4 15 -10 15 -5 0
-10 -7 -10 -15z"/>
<path d="M5095 4790 c-3 -5 -1 -10 4 -10 6 0 11 5 11 10 0 6 -2 10 -4 10 -3 0
-8 -4 -11 -10z"/>
<path d="M5111 4754 c0 -11 3 -14 6 -6 3 7 2 16 -1 19 -3 4 -6 -2 -5 -13z"/>
<path d="M4966 4688 c3 -69 3 -68 12 -68 11 0 7 99 -5 111 -6 6 -9 -10 -7 -43z"/>
<path d="M5026 4725 c4 -8 8 -15 10 -15 2 0 4 7 4 15 0 8 -4 15 -10 15 -5 0
-7 -7 -4 -15z"/>
<path d="M5110 4637 c0 -20 4 -37 10 -37 5 0 7 14 3 33 -8 45 -13 47 -13 4z"/>
<path d="M5040 4615 c0 -25 5 -45 10 -45 6 0 10 -7 10 -15 0 -8 6 -15 14 -15
12 0 11 7 -4 37 -12 25 -15 40 -8 44 13 8 3 39 -12 39 -5 0 -10 -20 -10 -45z"/>
<path d="M5586 4585 c4 -8 13 -15 21 -15 12 0 12 2 -1 15 -8 8 -17 15 -20 15
-3 0 -3 -7 0 -15z"/>
<path d="M5132 4545 c0 -16 2 -22 5 -12 2 9 2 23 0 30 -3 6 -5 -1 -5 -18z"/>
<path d="M5636 4532 c12 -9 24 -24 27 -32 4 -11 6 -11 6 3 1 21 -22 47 -41 47
-8 0 -5 -7 8 -18z"/>
<path d="M5110 4461 c0 -17 5 -31 10 -31 6 0 10 11 10 24 0 14 -4 28 -10 31
-6 4 -10 -7 -10 -24z"/>
<path d="M5703 4433 c-18 -7 -16 -23 2 -23 8 0 15 7 15 15 0 8 -1 15 -2 14 -2
0 -9 -3 -15 -6z"/>
<path d="M5107 4396 c-4 -9 0 -22 8 -29 7 -8 15 -34 17 -58 l3 -44 5 40 c5 44
-22 119 -33 91z"/>
<path d="M5170 4399 c0 -9 9 -26 20 -39 11 -13 20 -26 20 -30 0 -3 10 -17 21
-29 14 -15 18 -26 11 -30 -17 -10 12 -43 32 -35 9 3 16 2 16 -4 0 -11 36 -23
44 -15 8 8 -22 34 -36 31 -9 -2 -15 18 -19 72 -4 57 -6 64 -7 28 -1 -27 -4
-48 -7 -48 -10 0 -50 44 -72 80 -13 20 -23 28 -23 19z"/>
<path d="M5251 4204 c0 -11 3 -14 6 -6 3 7 2 16 -1 19 -3 4 -6 -2 -5 -13z"/>
<path d="M6061 4074 c0 -11 3 -14 6 -6 3 7 2 16 -1 19 -3 4 -6 -2 -5 -13z"/>
<path d="M6286 3453 c-12 -12 -6 -23 14 -23 11 0 20 -4 20 -10 0 -5 5 -10 10
-10 17 0 11 14 -14 32 -13 9 -26 14 -30 11z"/>
<path d="M6408 3363 c-10 -2 -18 -9 -18 -14 0 -6 8 -5 20 1 11 6 20 13 20 15
0 3 -1 4 -2 4 -2 -1 -11 -3 -20 -6z"/>
<path d="M6426 3331 c-4 -7 -5 -15 -2 -18 9 -9 19 4 14 18 -4 11 -6 11 -12 0z"/>
<path d="M6460 3327 c0 -5 6 -15 14 -23 8 -7 16 -19 19 -26 2 -7 8 -10 12 -6
4 4 -5 19 -19 35 -14 15 -26 24 -26 20z"/>
<path d="M6440 3275 c0 -8 5 -15 10 -15 6 0 10 7 10 15 0 8 -4 15 -10 15 -5 0
-10 -7 -10 -15z"/>
<path d="M6570 3145 c0 -18 19 -40 26 -32 4 4 0 15 -9 24 -9 10 -17 13 -17 8z"/>
<path d="M6435 3110 c-3 -5 1 -10 9 -10 9 0 16 5 16 10 0 6 -4 10 -9 10 -6 0
-13 -4 -16 -10z"/>
<path d="M6540 3073 c0 -5 5 -15 10 -23 8 -12 10 -11 10 8 0 12 -4 22 -10 22
-5 0 -10 -3 -10 -7z"/>
<path d="M6525 3020 c-3 -5 -1 -10 4 -10 6 0 11 5 11 10 0 6 -2 10 -4 10 -3 0
-8 -4 -11 -10z"/>
<path d="M5794 1365 c36 -19 41 -19 22 0 -8 8 -23 15 -33 15 -13 0 -10 -4 11
-15z"/>
<path d="M5690 1345 c0 -8 5 -15 11 -15 6 0 17 7 25 15 14 13 13 15 -10 15
-16 0 -26 -6 -26 -15z"/>
<path d="M5690 1295 c0 -8 7 -15 15 -15 8 0 15 7 15 15 0 8 -7 15 -15 15 -8 0
-15 -7 -15 -15z"/>
<path d="M6238 1093 c7 -3 16 -2 19 1 4 3 -2 6 -13 5 -11 0 -14 -3 -6 -6z"/>
<path d="M6470 920 c-13 -8 -12 -10 3 -10 9 0 17 5 17 10 0 12 -1 12 -20 0z"/>
<path d="M6421 911 c-10 -6 -10 -10 -1 -16 13 -8 24 -1 19 14 -3 6 -10 7 -18
2z"/>
<path d="M3175 210 c3 -6 -5 -10 -18 -10 -14 0 -35 -9 -48 -20 l-24 -19 53 -1
c51 0 52 0 52 30 0 17 -5 30 -11 30 -5 0 -7 -4 -4 -10z"/>
<path d="M2929 30 c-7 -5 -17 -6 -21 -4 -4 3 -5 -2 -2 -10 7 -17 94 -23 94 -7
0 14 -55 30 -71 21z"/>
</g>
</svg>
